<?xml version="1.0" encoding="UTF-8" standalone="no"?>
<!DOCTYPE svg PUBLIC "-//W3C//DTD SVG 1.1//EN"
 "http://www.w3.org/Graphics/SVG/1.1/DTD/svg11.dtd">
<!-- Generated by graphviz version 2.40.1 (20161225.0304)
 -->
<!-- Title: dependencies Pages: 1 -->
<svg width="5563pt" height="284pt"
 viewBox="0.00 0.00 5563.00 284.00" xmlns="http://www.w3.org/2000/svg" xmlns:xlink="http://www.w3.org/1999/xlink">
<g id="graph0" class="graph" transform="scale(1 1) rotate(0) translate(4 280)">
<title>dependencies</title>
<polygon fill="#ffffff" stroke="transparent" points="-4,4 -4,-280 5559,-280 5559,4 -4,4"/>
<text text-anchor="start" x="2756.5091" y="-42.4" font-family="sans-serif" font-weight="bold" font-size="14.00" fill="#000000">Legend</text>
<polygon fill="#ffffb3" stroke="transparent" points="2543.5,-10 2543.5,-30 2563.5,-30 2563.5,-10 2543.5,-10"/>
<text text-anchor="start" x="2567.129" y="-15.4" font-family="sans-serif" font-size="14.00" fill="#000000"> &#160;Declarations</text>
<polygon fill="#8dd3c7" stroke="transparent" points="2656.5,-10 2656.5,-30 2676.5,-30 2676.5,-10 2656.5,-10"/>
<text text-anchor="start" x="2680.2251" y="-15.4" font-family="sans-serif" font-size="14.00" fill="#000000"> &#160;Module</text>
<polygon fill="#80b1d3" stroke="transparent" points="2742.5,-10 2742.5,-30 2762.5,-30 2762.5,-10 2742.5,-10"/>
<text text-anchor="start" x="2766.2812" y="-15.4" font-family="sans-serif" font-size="14.00" fill="#000000"> &#160;Bootstrap</text>
<polygon fill="#fdb462" stroke="transparent" points="2839.5,-10 2839.5,-30 2859.5,-30 2859.5,-10 2839.5,-10"/>
<text text-anchor="start" x="2863.1732" y="-15.4" font-family="sans-serif" font-size="14.00" fill="#000000"> &#160;Providers</text>
<polygon fill="#fb8072" stroke="transparent" points="2935.5,-10 2935.5,-30 2955.5,-30 2955.5,-10 2935.5,-10"/>
<text text-anchor="start" x="2959.2258" y="-15.4" font-family="sans-serif" font-size="14.00" fill="#000000"> &#160;Exports</text>
<g id="clust1" class="cluster">
<title>cluster_AppModule</title>
<polygon fill="none" stroke="#000000" stroke-dasharray="1,5" points="8,-70 8,-268 5547,-268 5547,-70 8,-70"/>
</g>
<g id="clust2" class="cluster">
<title>cluster_AppModule_declarations</title>
<polygon fill="none" stroke="#000000" points="1927,-78 1927,-130 5539,-130 5539,-78 1927,-78"/>
</g>
<g id="clust36" class="cluster">
<title>cluster_AppModule_bootstrap</title>
<polygon fill="none" stroke="#000000" points="3057,-208 3057,-260 3145,-260 3145,-208 3057,-208"/>
</g>
<g id="clust37" class="cluster">
<title>cluster_AppModule_providers</title>
<polygon fill="none" stroke="#000000" points="16,-78 16,-130 1919,-130 1919,-78 16,-78"/>
</g>
<!-- AppInfoPage -->
<g id="node1" class="node">
<title>AppInfoPage</title>
<polygon fill="#ffffb3" stroke="#000000" points="5531.1403,-122 5440.8597,-122 5440.8597,-86 5531.1403,-86 5531.1403,-122"/>
<text text-anchor="middle" x="5486" y="-99.8" font-family="Times,serif" font-size="14.00" fill="#000000">AppInfoPage</text>
</g>
<!-- AppModule -->
<g id="node32" class="node">
<title>AppModule</title>
<polygon fill="#8dd3c7" stroke="#000000" points="3142.6571,-187 3139.6571,-191 3118.6571,-191 3115.6571,-187 3059.3429,-187 3059.3429,-151 3142.6571,-151 3142.6571,-187"/>
<text text-anchor="middle" x="3101" y="-164.8" font-family="Times,serif" font-size="14.00" fill="#000000">AppModule</text>
</g>
<!-- AppInfoPage&#45;&gt;AppModule -->
<g id="edge1" class="edge">
<title>AppInfoPage&#45;&gt;AppModule</title>
<path fill="none" stroke="#000000" d="M5486,-122.1985C5486,-146.3563 5486,-186 5486,-186 5486,-186 3152.9008,-186 3152.9008,-186"/>
<polygon fill="#000000" stroke="#000000" points="3152.9009,-182.5001 3142.9008,-186 3152.9008,-189.5001 3152.9009,-182.5001"/>
</g>
<!-- BookDetailViewPage -->
<g id="node2" class="node">
<title>BookDetailViewPage</title>
<polygon fill="#ffffb3" stroke="#000000" points="5423.0744,-122 5284.9256,-122 5284.9256,-86 5423.0744,-86 5423.0744,-122"/>
<text text-anchor="middle" x="5354" y="-99.8" font-family="Times,serif" font-size="14.00" fill="#000000">BookDetailViewPage</text>
</g>
<!-- BookDetailViewPage&#45;&gt;AppModule -->
<g id="edge2" class="edge">
<title>BookDetailViewPage&#45;&gt;AppModule</title>
<path fill="none" stroke="#000000" d="M5354,-122.1532C5354,-145.7566 5354,-184 5354,-184 5354,-184 3153.0062,-184 3153.0062,-184"/>
<polygon fill="#000000" stroke="#000000" points="3153.0062,-180.5001 3143.0062,-184 3153.0061,-187.5001 3153.0062,-180.5001"/>
</g>
<!-- CampusMapPage -->
<g id="node3" class="node">
<title>CampusMapPage</title>
<polygon fill="#ffffb3" stroke="#000000" points="5267.2577,-122 5152.7423,-122 5152.7423,-86 5267.2577,-86 5267.2577,-122"/>
<text text-anchor="middle" x="5210" y="-99.8" font-family="Times,serif" font-size="14.00" fill="#000000">CampusMapPage</text>
</g>
<!-- CampusMapPage&#45;&gt;AppModule -->
<g id="edge3" class="edge">
<title>CampusMapPage&#45;&gt;AppModule</title>
<path fill="none" stroke="#000000" d="M5210,-122.0908C5210,-145.1328 5210,-182 5210,-182 5210,-182 3153.1281,-182 3153.1281,-182"/>
<polygon fill="#000000" stroke="#000000" points="3153.1281,-178.5001 3143.1281,-182 3153.128,-185.5001 3153.1281,-178.5001"/>
</g>
<!-- DetailedOpeningPage -->
<g id="node4" class="node">
<title>DetailedOpeningPage</title>
<polygon fill="#ffffb3" stroke="#000000" points="5134.3459,-122 4995.6541,-122 4995.6541,-86 5134.3459,-86 5134.3459,-122"/>
<text text-anchor="middle" x="5065" y="-99.8" font-family="Times,serif" font-size="14.00" fill="#000000">DetailedOpeningPage</text>
</g>
<!-- DetailedOpeningPage&#45;&gt;AppModule -->
<g id="edge4" class="edge">
<title>DetailedOpeningPage&#45;&gt;AppModule</title>
<path fill="none" stroke="#000000" d="M5065,-122.2479C5065,-145.0179 5065,-181 5065,-181 5065,-181 3152.9295,-181 3152.9295,-181"/>
<polygon fill="#000000" stroke="#000000" points="3152.9296,-177.5001 3142.9295,-181 3152.9295,-184.5001 3152.9296,-177.5001"/>
</g>
<!-- DetailedPracticePage -->
<g id="node5" class="node">
<title>DetailedPracticePage</title>
<polygon fill="#ffffb3" stroke="#000000" points="4977.7171,-122 4842.2829,-122 4842.2829,-86 4977.7171,-86 4977.7171,-122"/>
<text text-anchor="middle" x="4910" y="-99.8" font-family="Times,serif" font-size="14.00" fill="#000000">DetailedPracticePage</text>
</g>
<!-- DetailedPracticePage&#45;&gt;AppModule -->
<g id="edge5" class="edge">
<title>DetailedPracticePage&#45;&gt;AppModule</title>
<path fill="none" stroke="#000000" d="M4910,-122.1554C4910,-144.3519 4910,-179 4910,-179 4910,-179 3153.0534,-179 3153.0534,-179"/>
<polygon fill="#000000" stroke="#000000" points="3153.0534,-175.5001 3143.0534,-179 3153.0533,-182.5001 3153.0534,-175.5001"/>
</g>
<!-- EmergencyPage -->
<g id="node6" class="node">
<title>EmergencyPage</title>
<polygon fill="#ffffb3" stroke="#000000" points="4824.4594,-122 4717.5406,-122 4717.5406,-86 4824.4594,-86 4824.4594,-122"/>
<text text-anchor="middle" x="4771" y="-99.8" font-family="Times,serif" font-size="14.00" fill="#000000">EmergencyPage</text>
</g>
<!-- EmergencyPage&#45;&gt;AppModule -->
<g id="edge6" class="edge">
<title>EmergencyPage&#45;&gt;AppModule</title>
<path fill="none" stroke="#000000" d="M4771,-122.0449C4771,-143.6623 4771,-177 4771,-177 4771,-177 3152.6978,-177 3152.6978,-177"/>
<polygon fill="#000000" stroke="#000000" points="3152.6978,-173.5001 3142.6978,-177 3152.6977,-180.5001 3152.6978,-173.5001"/>
</g>
<!-- EventModal -->
<g id="node7" class="node">
<title>EventModal</title>
<polygon fill="#ffffb3" stroke="#000000" points="4699.7079,-122 4614.2921,-122 4614.2921,-86 4699.7079,-86 4699.7079,-122"/>
<text text-anchor="middle" x="4657" y="-99.8" font-family="Times,serif" font-size="14.00" fill="#000000">EventModal</text>
</g>
<!-- EventModal&#45;&gt;AppModule -->
<g id="edge7" class="edge">
<title>EventModal&#45;&gt;AppModule</title>
<path fill="none" stroke="#000000" d="M4657,-122.2843C4657,-143.3211 4657,-175 4657,-175 4657,-175 3153.0218,-175 3153.0218,-175"/>
<polygon fill="#000000" stroke="#000000" points="3153.0219,-171.5001 3143.0218,-175 3153.0218,-178.5001 3153.0219,-171.5001"/>
</g>
<!-- EventsPage -->
<g id="node8" class="node">
<title>EventsPage</title>
<polygon fill="#ffffb3" stroke="#000000" points="4596.8148,-122 4515.1852,-122 4515.1852,-86 4596.8148,-86 4596.8148,-122"/>
<text text-anchor="middle" x="4556" y="-99.8" font-family="Times,serif" font-size="14.00" fill="#000000">EventsPage</text>
</g>
<!-- EventsPage&#45;&gt;AppModule -->
<g id="edge8" class="edge">
<title>EventsPage&#45;&gt;AppModule</title>
<path fill="none" stroke="#000000" d="M4556,-122.0267C4556,-142.7672 4556,-174 4556,-174 4556,-174 3152.9762,-174 3152.9762,-174"/>
<polygon fill="#000000" stroke="#000000" points="3152.9762,-170.5001 3142.9762,-174 3152.9761,-177.5001 3152.9762,-170.5001"/>
</g>
<!-- GradesPage -->
<g id="node9" class="node">
<title>GradesPage</title>
<polygon fill="#ffffb3" stroke="#000000" points="4497.3529,-122 4414.6471,-122 4414.6471,-86 4497.3529,-86 4497.3529,-122"/>
<text text-anchor="middle" x="4456" y="-99.8" font-family="Times,serif" font-size="14.00" fill="#000000">GradesPage</text>
</g>
<!-- GradesPage&#45;&gt;AppModule -->
<g id="edge9" class="edge">
<title>GradesPage&#45;&gt;AppModule</title>
<path fill="none" stroke="#000000" d="M4456,-122.2228C4456,-142.3652 4456,-172 4456,-172 4456,-172 3152.6645,-172 3152.6645,-172"/>
<polygon fill="#000000" stroke="#000000" points="3152.6646,-168.5001 3142.6645,-172 3152.6645,-175.5001 3152.6646,-168.5001"/>
</g>
<!-- HomePage -->
<g id="node10" class="node">
<title>HomePage</title>
<polygon fill="#ffffb3" stroke="#000000" points="4396.9248,-122 4319.0752,-122 4319.0752,-86 4396.9248,-86 4396.9248,-122"/>
<text text-anchor="middle" x="4358" y="-99.8" font-family="Times,serif" font-size="14.00" fill="#000000">HomePage</text>
</g>
<!-- HomePage&#45;&gt;AppModule -->
<g id="edge10" class="edge">
<title>HomePage&#45;&gt;AppModule</title>
<path fill="none" stroke="#000000" d="M4358,-122.0348C4358,-141.5762 4358,-170 4358,-170 4358,-170 3152.8226,-170 3152.8226,-170"/>
<polygon fill="#000000" stroke="#000000" points="3152.8227,-166.5001 3142.8226,-170 3152.8226,-173.5001 3152.8227,-166.5001"/>
</g>
<!-- ImpressumPage -->
<g id="node11" class="node">
<title>ImpressumPage</title>
<polygon fill="#ffffb3" stroke="#000000" points="4301.9188,-122 4196.0812,-122 4196.0812,-86 4301.9188,-86 4301.9188,-122"/>
<text text-anchor="middle" x="4249" y="-99.8" font-family="Times,serif" font-size="14.00" fill="#000000">ImpressumPage</text>
</g>
<!-- ImpressumPage&#45;&gt;AppModule -->
<g id="edge11" class="edge">
<title>ImpressumPage&#45;&gt;AppModule</title>
<path fill="none" stroke="#000000" d="M4249,-122.1061C4249,-141.3391 4249,-169 4249,-169 4249,-169 3152.8771,-169 3152.8771,-169"/>
<polygon fill="#000000" stroke="#000000" points="3152.8772,-165.5001 3142.8771,-169 3152.8771,-172.5001 3152.8772,-165.5001"/>
</g>
<!-- LecturesPage -->
<g id="node12" class="node">
<title>LecturesPage</title>
<polygon fill="#ffffb3" stroke="#000000" points="4178.9049,-122 4087.0951,-122 4087.0951,-86 4178.9049,-86 4178.9049,-122"/>
<text text-anchor="middle" x="4133" y="-99.8" font-family="Times,serif" font-size="14.00" fill="#000000">LecturesPage</text>
</g>
<!-- LecturesPage&#45;&gt;AppModule -->
<g id="edge12" class="edge">
<title>LecturesPage&#45;&gt;AppModule</title>
<path fill="none" stroke="#000000" d="M4133,-122.2222C4133,-140.8285 4133,-167 4133,-167 4133,-167 3152.7338,-167 3152.7338,-167"/>
<polygon fill="#000000" stroke="#000000" points="3152.7338,-163.5001 3142.7338,-167 3152.7338,-170.5001 3152.7338,-163.5001"/>
</g>
<!-- LegalNoticePage -->
<g id="node13" class="node">
<title>LegalNoticePage</title>
<polygon fill="#ffffb3" stroke="#000000" points="4069.4019,-122 3956.5981,-122 3956.5981,-86 4069.4019,-86 4069.4019,-122"/>
<text text-anchor="middle" x="4013" y="-99.8" font-family="Times,serif" font-size="14.00" fill="#000000">LegalNoticePage</text>
</g>
<!-- LegalNoticePage&#45;&gt;AppModule -->
<g id="edge13" class="edge">
<title>LegalNoticePage&#45;&gt;AppModule</title>
<path fill="none" stroke="#000000" d="M4013,-122.302C4013,-140.2699 4013,-165 4013,-165 4013,-165 3152.8571,-165 3152.8571,-165"/>
<polygon fill="#000000" stroke="#000000" points="3152.8571,-161.5001 3142.8571,-165 3152.8571,-168.5001 3152.8571,-161.5001"/>
</g>
<!-- LibraryPage -->
<g id="node14" class="node">
<title>LibraryPage</title>
<polygon fill="#ffffb3" stroke="#000000" points="3938.691,-122 3853.309,-122 3853.309,-86 3938.691,-86 3938.691,-122"/>
<text text-anchor="middle" x="3896" y="-99.8" font-family="Times,serif" font-size="14.00" fill="#000000">LibraryPage</text>
</g>
<!-- LibraryPage&#45;&gt;AppModule -->
<g id="edge14" class="edge">
<title>LibraryPage&#45;&gt;AppModule</title>
<path fill="none" stroke="#000000" d="M3896,-122.0225C3896,-139.3734 3896,-163 3896,-163 3896,-163 3152.9019,-163 3152.9019,-163"/>
<polygon fill="#000000" stroke="#000000" points="3152.902,-159.5001 3142.9019,-163 3152.9019,-166.5001 3152.902,-159.5001"/>
</g>
<!-- LoginPage -->
<g id="node15" class="node">
<title>LoginPage</title>
<polygon fill="#ffffb3" stroke="#000000" points="3835.1558,-122 3758.8442,-122 3758.8442,-86 3835.1558,-86 3835.1558,-122"/>
<text text-anchor="middle" x="3797" y="-99.8" font-family="Times,serif" font-size="14.00" fill="#000000">LoginPage</text>
</g>
<!-- LoginPage&#45;&gt;AppModule -->
<g id="edge15" class="edge">
<title>LoginPage&#45;&gt;AppModule</title>
<path fill="none" stroke="#000000" d="M3797,-122.0336C3797,-139.0597 3797,-162 3797,-162 3797,-162 3152.7117,-162 3152.7117,-162"/>
<polygon fill="#000000" stroke="#000000" points="3152.7118,-158.5001 3142.7117,-162 3152.7117,-165.5001 3152.7118,-158.5001"/>
</g>
<!-- LogoutPage -->
<g id="node16" class="node">
<title>LogoutPage</title>
<polygon fill="#ffffb3" stroke="#000000" points="3740.6557,-122 3657.3443,-122 3657.3443,-86 3740.6557,-86 3740.6557,-122"/>
<text text-anchor="middle" x="3699" y="-99.8" font-family="Times,serif" font-size="14.00" fill="#000000">LogoutPage</text>
</g>
<!-- LogoutPage&#45;&gt;AppModule -->
<g id="edge16" class="edge">
<title>LogoutPage&#45;&gt;AppModule</title>
<path fill="none" stroke="#000000" d="M3699,-122.027C3699,-138.3976 3699,-160 3699,-160 3699,-160 3153.0502,-160 3153.0502,-160"/>
<polygon fill="#000000" stroke="#000000" points="3153.0502,-156.5001 3143.0502,-160 3153.0502,-163.5001 3153.0502,-156.5001"/>
</g>
<!-- MensaPage -->
<g id="node17" class="node">
<title>MensaPage</title>
<polygon fill="#ffffb3" stroke="#000000" points="3639.0316,-122 3558.9684,-122 3558.9684,-86 3639.0316,-86 3639.0316,-122"/>
<text text-anchor="middle" x="3599" y="-99.8" font-family="Times,serif" font-size="14.00" fill="#000000">MensaPage</text>
</g>
<!-- MensaPage&#45;&gt;AppModule -->
<g id="edge17" class="edge">
<title>MensaPage&#45;&gt;AppModule</title>
<path fill="none" stroke="#000000" d="M3599,-122.2819C3599,-137.9478 3599,-158 3599,-158 3599,-158 3153.03,-158 3153.03,-158"/>
<polygon fill="#000000" stroke="#000000" points="3153.03,-154.5001 3143.03,-158 3153.03,-161.5001 3153.03,-154.5001"/>
</g>
<!-- MobileUPApp -->
<g id="node18" class="node">
<title>MobileUPApp</title>
<polygon fill="#ffffb3" stroke="#000000" points="3541.4372,-122 3442.5628,-122 3442.5628,-86 3541.4372,-86 3541.4372,-122"/>
<text text-anchor="middle" x="3492" y="-99.8" font-family="Times,serif" font-size="14.00" fill="#000000">MobileUPApp</text>
</g>
<!-- MobileUPApp&#45;&gt;AppModule -->
<g id="edge18" class="edge">
<title>MobileUPApp&#45;&gt;AppModule</title>
<path fill="none" stroke="#000000" d="M3492,-122.2396C3492,-137.5706 3492,-157 3492,-157 3492,-157 3152.8438,-157 3152.8438,-157"/>
<polygon fill="#000000" stroke="#000000" points="3152.8439,-153.5001 3142.8438,-157 3152.8438,-160.5001 3152.8439,-153.5001"/>
</g>
<!-- MomentPipe -->
<g id="node19" class="node">
<title>MomentPipe</title>
<polygon fill="#ffffb3" stroke="#000000" points="3425.3288,-122 3336.6712,-122 3336.6712,-86 3425.3288,-86 3425.3288,-122"/>
<text text-anchor="middle" x="3381" y="-99.8" font-family="Times,serif" font-size="14.00" fill="#000000">MomentPipe</text>
</g>
<!-- MomentPipe&#45;&gt;AppModule -->
<g id="edge19" class="edge">
<title>MomentPipe&#45;&gt;AppModule</title>
<path fill="none" stroke="#000000" d="M3381,-122.1243C3381,-136.7832 3381,-155 3381,-155 3381,-155 3152.9188,-155 3152.9188,-155"/>
<polygon fill="#000000" stroke="#000000" points="3152.9189,-151.5001 3142.9188,-155 3152.9188,-158.5001 3152.9189,-151.5001"/>
</g>
<!-- NewsPage -->
<g id="node20" class="node">
<title>NewsPage</title>
<polygon fill="#ffffb3" stroke="#000000" points="3318.5842,-122 3243.4158,-122 3243.4158,-86 3318.5842,-86 3318.5842,-122"/>
<text text-anchor="middle" x="3281" y="-99.8" font-family="Times,serif" font-size="14.00" fill="#000000">NewsPage</text>
</g>
<!-- NewsPage&#45;&gt;AppModule -->
<g id="edge20" class="edge">
<title>NewsPage&#45;&gt;AppModule</title>
<path fill="none" stroke="#000000" d="M3281,-122.2458C3281,-136.1772 3281,-153 3281,-153 3281,-153 3152.748,-153 3152.748,-153"/>
<polygon fill="#000000" stroke="#000000" points="3152.7481,-149.5001 3142.748,-153 3152.748,-156.5001 3152.7481,-149.5001"/>
</g>
<!-- OpeningHoursPage -->
<g id="node21" class="node">
<title>OpeningHoursPage</title>
<polygon fill="#ffffb3" stroke="#000000" points="3225.6359,-122 3100.3641,-122 3100.3641,-86 3225.6359,-86 3225.6359,-122"/>
<text text-anchor="middle" x="3163" y="-99.8" font-family="Times,serif" font-size="14.00" fill="#000000">OpeningHoursPage</text>
</g>
<!-- OpeningHoursPage&#45;&gt;AppModule -->
<g id="edge21" class="edge">
<title>OpeningHoursPage&#45;&gt;AppModule</title>
<path fill="none" stroke="#000000" d="M3121.5053,-122.1061C3121.5053,-122.1061 3121.5053,-140.991 3121.5053,-140.991"/>
<polygon fill="#000000" stroke="#000000" points="3118.0053,-140.9909 3121.5053,-150.991 3125.0053,-140.991 3118.0053,-140.9909"/>
</g>
<!-- PersonsPage -->
<g id="node22" class="node">
<title>PersonsPage</title>
<polygon fill="#ffffb3" stroke="#000000" points="3082.2591,-122 2995.7409,-122 2995.7409,-86 3082.2591,-86 3082.2591,-122"/>
<text text-anchor="middle" x="3039" y="-99.8" font-family="Times,serif" font-size="14.00" fill="#000000">PersonsPage</text>
</g>
<!-- PersonsPage&#45;&gt;AppModule -->
<g id="edge22" class="edge">
<title>PersonsPage&#45;&gt;AppModule</title>
<path fill="none" stroke="#000000" d="M3070.7756,-122.1061C3070.7756,-122.1061 3070.7756,-140.991 3070.7756,-140.991"/>
<polygon fill="#000000" stroke="#000000" points="3067.2757,-140.9909 3070.7756,-150.991 3074.2757,-140.991 3067.2757,-140.9909"/>
</g>
<!-- PopoverButton -->
<g id="node23" class="node">
<title>PopoverButton</title>
<polygon fill="#ffffb3" stroke="#000000" points="2977.2758,-122 2876.7242,-122 2876.7242,-86 2977.2758,-86 2977.2758,-122"/>
<text text-anchor="middle" x="2927" y="-99.8" font-family="Times,serif" font-size="14.00" fill="#000000">PopoverButton</text>
</g>
<!-- PopoverButton&#45;&gt;AppModule -->
<g id="edge23" class="edge">
<title>PopoverButton&#45;&gt;AppModule</title>
<path fill="none" stroke="#000000" d="M2927,-122.2458C2927,-136.1772 2927,-153 2927,-153 2927,-153 3049.3227,-153 3049.3227,-153"/>
<polygon fill="#000000" stroke="#000000" points="3049.3227,-156.5001 3059.3227,-153 3049.3226,-149.5001 3049.3227,-156.5001"/>
</g>
<!-- PracticePage -->
<g id="node24" class="node">
<title>PracticePage</title>
<polygon fill="#ffffb3" stroke="#000000" points="2858.2951,-122 2769.7049,-122 2769.7049,-86 2858.2951,-86 2858.2951,-122"/>
<text text-anchor="middle" x="2814" y="-99.8" font-family="Times,serif" font-size="14.00" fill="#000000">PracticePage</text>
</g>
<!-- PracticePage&#45;&gt;AppModule -->
<g id="edge24" class="edge">
<title>PracticePage&#45;&gt;AppModule</title>
<path fill="none" stroke="#000000" d="M2814,-122.1243C2814,-136.7832 2814,-155 2814,-155 2814,-155 3049.2677,-155 3049.2677,-155"/>
<polygon fill="#000000" stroke="#000000" points="3049.2678,-158.5001 3059.2677,-155 3049.2677,-151.5001 3049.2678,-158.5001"/>
</g>
<!-- PrivacyPolicyPage -->
<g id="node25" class="node">
<title>PrivacyPolicyPage</title>
<polygon fill="#ffffb3" stroke="#000000" points="2751.7534,-122 2630.2466,-122 2630.2466,-86 2751.7534,-86 2751.7534,-122"/>
<text text-anchor="middle" x="2691" y="-99.8" font-family="Times,serif" font-size="14.00" fill="#000000">PrivacyPolicyPage</text>
</g>
<!-- PrivacyPolicyPage&#45;&gt;AppModule -->
<g id="edge25" class="edge">
<title>PrivacyPolicyPage&#45;&gt;AppModule</title>
<path fill="none" stroke="#000000" d="M2691,-122.2396C2691,-137.5706 2691,-157 2691,-157 2691,-157 3049.0496,-157 3049.0496,-157"/>
<polygon fill="#000000" stroke="#000000" points="3049.0496,-160.5001 3059.0496,-157 3049.0496,-153.5001 3049.0496,-160.5001"/>
</g>
<!-- RoomplanPage -->
<g id="node26" class="node">
<title>RoomplanPage</title>
<polygon fill="#ffffb3" stroke="#000000" points="2611.5452,-122 2510.4548,-122 2510.4548,-86 2611.5452,-86 2611.5452,-122"/>
<text text-anchor="middle" x="2561" y="-99.8" font-family="Times,serif" font-size="14.00" fill="#000000">RoomplanPage</text>
</g>
<!-- RoomplanPage&#45;&gt;AppModule -->
<g id="edge26" class="edge">
<title>RoomplanPage&#45;&gt;AppModule</title>
<path fill="none" stroke="#000000" d="M2561,-122.2819C2561,-137.9478 2561,-158 2561,-158 2561,-158 3049.0764,-158 3049.0764,-158"/>
<polygon fill="#000000" stroke="#000000" points="3049.0765,-161.5001 3059.0764,-158 3049.0764,-154.5001 3049.0765,-161.5001"/>
</g>
<!-- RoomsPage -->
<g id="node27" class="node">
<title>RoomsPage</title>
<polygon fill="#ffffb3" stroke="#000000" points="2492.3837,-122 2409.6163,-122 2409.6163,-86 2492.3837,-86 2492.3837,-122"/>
<text text-anchor="middle" x="2451" y="-99.8" font-family="Times,serif" font-size="14.00" fill="#000000">RoomsPage</text>
</g>
<!-- RoomsPage&#45;&gt;AppModule -->
<g id="edge27" class="edge">
<title>RoomsPage&#45;&gt;AppModule</title>
<path fill="none" stroke="#000000" d="M2451,-122.027C2451,-138.3976 2451,-160 2451,-160 2451,-160 3048.8525,-160 3048.8525,-160"/>
<polygon fill="#000000" stroke="#000000" points="3048.8525,-163.5001 3058.8525,-160 3048.8525,-156.5001 3048.8525,-163.5001"/>
</g>
<!-- SettingsPage -->
<g id="node28" class="node">
<title>SettingsPage</title>
<polygon fill="#ffffb3" stroke="#000000" points="2391.326,-122 2302.674,-122 2302.674,-86 2391.326,-86 2391.326,-122"/>
<text text-anchor="middle" x="2347" y="-99.8" font-family="Times,serif" font-size="14.00" fill="#000000">SettingsPage</text>
</g>
<!-- SettingsPage&#45;&gt;AppModule -->
<g id="edge28" class="edge">
<title>SettingsPage&#45;&gt;AppModule</title>
<path fill="none" stroke="#000000" d="M2347,-122.0336C2347,-139.0597 2347,-162 2347,-162 2347,-162 3049.1172,-162 3049.1172,-162"/>
<polygon fill="#000000" stroke="#000000" points="3049.1173,-165.5001 3059.1172,-162 3049.1172,-158.5001 3049.1173,-165.5001"/>
</g>
<!-- TermsOfUsePage -->
<g id="node29" class="node">
<title>TermsOfUsePage</title>
<polygon fill="#ffffb3" stroke="#000000" points="2284.5088,-122 2169.4912,-122 2169.4912,-86 2284.5088,-86 2284.5088,-122"/>
<text text-anchor="middle" x="2227" y="-99.8" font-family="Times,serif" font-size="14.00" fill="#000000">TermsOfUsePage</text>
</g>
<!-- TermsOfUsePage&#45;&gt;AppModule -->
<g id="edge29" class="edge">
<title>TermsOfUsePage&#45;&gt;AppModule</title>
<path fill="none" stroke="#000000" d="M2227,-122.0225C2227,-139.3734 2227,-163 2227,-163 2227,-163 3049.1396,-163 3049.1396,-163"/>
<polygon fill="#000000" stroke="#000000" points="3049.1396,-166.5001 3059.1396,-163 3049.1396,-159.5001 3049.1396,-166.5001"/>
</g>
<!-- TimetablePage -->
<g id="node30" class="node">
<title>TimetablePage</title>
<polygon fill="#ffffb3" stroke="#000000" points="2150.9706,-122 2051.0294,-122 2051.0294,-86 2150.9706,-86 2150.9706,-122"/>
<text text-anchor="middle" x="2101" y="-99.8" font-family="Times,serif" font-size="14.00" fill="#000000">TimetablePage</text>
</g>
<!-- TimetablePage&#45;&gt;AppModule -->
<g id="edge30" class="edge">
<title>TimetablePage&#45;&gt;AppModule</title>
<path fill="none" stroke="#000000" d="M2101,-122.302C2101,-140.2699 2101,-165 2101,-165 2101,-165 3049.3044,-165 3049.3044,-165"/>
<polygon fill="#000000" stroke="#000000" points="3049.3044,-168.5001 3059.3044,-165 3049.3044,-161.5001 3049.3044,-168.5001"/>
</g>
<!-- TransportPage -->
<g id="node31" class="node">
<title>TransportPage</title>
<polygon fill="#ffffb3" stroke="#000000" points="2032.6361,-122 1935.3639,-122 1935.3639,-86 2032.6361,-86 2032.6361,-122"/>
<text text-anchor="middle" x="1984" y="-99.8" font-family="Times,serif" font-size="14.00" fill="#000000">TransportPage</text>
</g>
<!-- TransportPage&#45;&gt;AppModule -->
<g id="edge31" class="edge">
<title>TransportPage&#45;&gt;AppModule</title>
<path fill="none" stroke="#000000" d="M1984,-122.2222C1984,-140.8285 1984,-167 1984,-167 1984,-167 3049.2509,-167 3049.2509,-167"/>
<polygon fill="#000000" stroke="#000000" points="3049.2509,-170.5001 3059.2509,-167 3049.2509,-163.5001 3049.2509,-170.5001"/>
</g>
<!-- IonicApp  -->
<g id="node33" class="node">
<title>IonicApp </title>
<polygon fill="#80b1d3" stroke="#000000" points="3137.3734,-252 3064.6266,-252 3064.6266,-216 3137.3734,-216 3137.3734,-252"/>
<text text-anchor="middle" x="3101" y="-229.8" font-family="Times,serif" font-size="14.00" fill="#000000">IonicApp </text>
</g>
<!-- AppModule&#45;&gt;IonicApp  -->
<g id="edge32" class="edge">
<title>AppModule&#45;&gt;IonicApp </title>
<path fill="none" stroke="#000000" stroke-dasharray="1,5" d="M3101,-187.1061C3101,-187.1061 3101,-205.991 3101,-205.991"/>
<polygon fill="#000000" stroke="#000000" points="3097.5001,-205.9909 3101,-215.991 3104.5001,-205.991 3097.5001,-205.9909"/>
</g>
<!-- AlertProvider -->
<g id="node34" class="node">
<title>AlertProvider</title>
<ellipse fill="#fdb462" stroke="#000000" cx="1847" cy="-104" rx="64.261" ry="18"/>
<text text-anchor="middle" x="1847" y="-99.8" font-family="Times,serif" font-size="14.00" fill="#000000">AlertProvider</text>
</g>
<!-- AlertProvider&#45;&gt;AppModule -->
<g id="edge33" class="edge">
<title>AlertProvider&#45;&gt;AppModule</title>
<path fill="none" stroke="#000000" d="M1847,-122.1061C1847,-141.3391 1847,-169 1847,-169 1847,-169 3049.2772,-169 3049.2772,-169"/>
<polygon fill="#000000" stroke="#000000" points="3049.2772,-172.5001 3059.2772,-169 3049.2771,-165.5001 3049.2772,-172.5001"/>
</g>
<!-- ConfigProvider -->
<g id="node35" class="node">
<title>ConfigProvider</title>
<ellipse fill="#fdb462" stroke="#000000" cx="1694" cy="-104" rx="71.2288" ry="18"/>
<text text-anchor="middle" x="1694" y="-99.8" font-family="Times,serif" font-size="14.00" fill="#000000">ConfigProvider</text>
</g>
<!-- ConfigProvider&#45;&gt;AppModule -->
<g id="edge34" class="edge">
<title>ConfigProvider&#45;&gt;AppModule</title>
<path fill="none" stroke="#000000" d="M1694,-122.0348C1694,-141.5762 1694,-170 1694,-170 1694,-170 3049.273,-170 3049.273,-170"/>
<polygon fill="#000000" stroke="#000000" points="3049.2731,-173.5001 3059.273,-170 3049.273,-166.5001 3049.2731,-173.5001"/>
</g>
<!-- ConnectionProvider -->
<g id="node36" class="node">
<title>ConnectionProvider</title>
<ellipse fill="#fdb462" stroke="#000000" cx="1516" cy="-104" rx="88.6275" ry="18"/>
<text text-anchor="middle" x="1516" y="-99.8" font-family="Times,serif" font-size="14.00" fill="#000000">ConnectionProvider</text>
</g>
<!-- ConnectionProvider&#45;&gt;AppModule -->
<g id="edge35" class="edge">
<title>ConnectionProvider&#45;&gt;AppModule</title>
<path fill="none" stroke="#000000" d="M1516,-122.2228C1516,-142.3652 1516,-172 1516,-172 1516,-172 3049.0134,-172 3049.0134,-172"/>
<polygon fill="#000000" stroke="#000000" points="3049.0134,-175.5001 3059.0134,-172 3049.0133,-168.5001 3049.0134,-175.5001"/>
</g>
<!-- ErrorLoggingProvider -->
<g id="node37" class="node">
<title>ErrorLoggingProvider</title>
<ellipse fill="#fdb462" stroke="#000000" cx="1312" cy="-104" rx="97.276" ry="18"/>
<text text-anchor="middle" x="1312" y="-99.8" font-family="Times,serif" font-size="14.00" fill="#000000">ErrorLoggingProvider</text>
</g>
<!-- ErrorLoggingProvider&#45;&gt;AppModule -->
<g id="edge36" class="edge">
<title>ErrorLoggingProvider&#45;&gt;AppModule</title>
<path fill="none" stroke="#000000" d="M1312,-122.0267C1312,-142.7672 1312,-174 1312,-174 1312,-174 3048.9777,-174 3048.9777,-174"/>
<polygon fill="#000000" stroke="#000000" points="3048.9778,-177.5001 3058.9777,-174 3048.9777,-170.5001 3048.9778,-177.5001"/>
</g>
<!-- MapsProvider -->
<g id="node38" class="node">
<title>MapsProvider</title>
<ellipse fill="#fdb462" stroke="#000000" cx="1131" cy="-104" rx="65.991" ry="18"/>
<text text-anchor="middle" x="1131" y="-99.8" font-family="Times,serif" font-size="14.00" fill="#000000">MapsProvider</text>
</g>
<!-- MapsProvider&#45;&gt;AppModule -->
<g id="edge37" class="edge">
<title>MapsProvider&#45;&gt;AppModule</title>
<path fill="none" stroke="#000000" d="M1131,-122.2843C1131,-143.3211 1131,-175 1131,-175 1131,-175 3048.9424,-175 3048.9424,-175"/>
<polygon fill="#000000" stroke="#000000" points="3048.9424,-178.5001 3058.9424,-175 3048.9423,-171.5001 3048.9424,-178.5001"/>
</g>
<!-- PulsProvider -->
<g id="node39" class="node">
<title>PulsProvider</title>
<ellipse fill="#fdb462" stroke="#000000" cx="986" cy="-104" rx="60.8525" ry="18"/>
<text text-anchor="middle" x="986" y="-99.8" font-family="Times,serif" font-size="14.00" fill="#000000">PulsProvider</text>
</g>
<!-- PulsProvider&#45;&gt;AppModule -->
<g id="edge38" class="edge">
<title>PulsProvider&#45;&gt;AppModule</title>
<path fill="none" stroke="#000000" d="M986,-122.0449C986,-143.6623 986,-177 986,-177 986,-177 3049.2275,-177 3049.2275,-177"/>
<polygon fill="#000000" stroke="#000000" points="3049.2275,-180.5001 3059.2275,-177 3049.2275,-173.5001 3049.2275,-180.5001"/>
</g>
<!-- SessionProvider -->
<g id="node40" class="node">
<title>SessionProvider</title>
<ellipse fill="#fdb462" stroke="#000000" cx="833" cy="-104" rx="73.5945" ry="18"/>
<text text-anchor="middle" x="833" y="-99.8" font-family="Times,serif" font-size="14.00" fill="#000000">SessionProvider</text>
</g>
<!-- SessionProvider&#45;&gt;AppModule -->
<g id="edge39" class="edge">
<title>SessionProvider&#45;&gt;AppModule</title>
<path fill="none" stroke="#000000" d="M833,-122.1554C833,-144.3519 833,-179 833,-179 833,-179 3049.2077,-179 3049.2077,-179"/>
<polygon fill="#000000" stroke="#000000" points="3049.2078,-182.5001 3059.2077,-179 3049.2077,-175.5001 3049.2078,-182.5001"/>
</g>
<!-- SettingsProvider -->
<g id="node41" class="node">
<title>SettingsProvider</title>
<ellipse fill="#fdb462" stroke="#000000" cx="666" cy="-104" rx="75.3176" ry="18"/>
<text text-anchor="middle" x="666" y="-99.8" font-family="Times,serif" font-size="14.00" fill="#000000">SettingsProvider</text>
</g>
<!-- SettingsProvider&#45;&gt;AppModule -->
<g id="edge40" class="edge">
<title>SettingsProvider&#45;&gt;AppModule</title>
<path fill="none" stroke="#000000" d="M666,-122.2479C666,-145.0179 666,-181 666,-181 666,-181 3049.2483,-181 3049.2483,-181"/>
<polygon fill="#000000" stroke="#000000" points="3049.2484,-184.5001 3059.2483,-181 3049.2483,-177.5001 3049.2484,-184.5001"/>
</g>
<!-- UPLoginProvider -->
<g id="node42" class="node">
<title>UPLoginProvider</title>
<ellipse fill="#fdb462" stroke="#000000" cx="493" cy="-104" rx="79.8972" ry="18"/>
<text text-anchor="middle" x="493" y="-99.8" font-family="Times,serif" font-size="14.00" fill="#000000">UPLoginProvider</text>
</g>
<!-- UPLoginProvider&#45;&gt;AppModule -->
<g id="edge41" class="edge">
<title>UPLoginProvider&#45;&gt;AppModule</title>
<path fill="none" stroke="#000000" d="M493,-122.0908C493,-145.1328 493,-182 493,-182 493,-182 3049.2435,-182 3049.2435,-182"/>
<polygon fill="#000000" stroke="#000000" points="3049.2435,-185.5001 3059.2435,-182 3049.2435,-178.5001 3049.2435,-185.5001"/>
</g>
<!-- WebIntentProvider -->
<g id="node43" class="node">
<title>WebIntentProvider</title>
<ellipse fill="#fdb462" stroke="#000000" cx="310" cy="-104" rx="85.0928" ry="18"/>
<text text-anchor="middle" x="310" y="-99.8" font-family="Times,serif" font-size="14.00" fill="#000000">WebIntentProvider</text>
</g>
<!-- WebIntentProvider&#45;&gt;AppModule -->
<g id="edge42" class="edge">
<title>WebIntentProvider&#45;&gt;AppModule</title>
<path fill="none" stroke="#000000" d="M310,-122.1532C310,-145.7566 310,-184 310,-184 310,-184 3049.1056,-184 3049.1056,-184"/>
<polygon fill="#000000" stroke="#000000" points="3049.1056,-187.5001 3059.1056,-184 3049.1056,-180.5001 3049.1056,-187.5001"/>
</g>
<!-- WebServiceProvider -->
<g id="node44" class="node">
<title>WebServiceProvider</title>
<ellipse fill="#fdb462" stroke="#000000" cx="115" cy="-104" rx="91.4519" ry="18"/>
<text text-anchor="middle" x="115" y="-99.8" font-family="Times,serif" font-size="14.00" fill="#000000">WebServiceProvider</text>
</g>
<!-- WebServiceProvider&#45;&gt;AppModule -->
<g id="edge43" class="edge">
<title>WebServiceProvider&#45;&gt;AppModule</title>
<path fill="none" stroke="#000000" d="M115,-122.1985C115,-146.3563 115,-186 115,-186 115,-186 3049.0744,-186 3049.0744,-186"/>
<polygon fill="#000000" stroke="#000000" points="3049.0745,-189.5001 3059.0744,-186 3049.0744,-182.5001 3049.0745,-189.5001"/>
</g>
</g>
</svg>
